# Blender 4.3.2
# www.blender.org
mtllib myroofs_shingles.mtl
o Cube
v 0.500000 -0.500000 -0.500000
v 0.500000 0.500000 0.500000
v 0.500000 -0.500000 0.500000
v -0.500000 -0.500000 -0.500000
v -0.500000 0.500000 0.500000
v -0.500000 -0.500000 0.500000
v 0.500000 -0.500000 -0.500000
v 0.500000 0.500000 0.500000
v -0.500000 0.500000 0.500000
v -0.500000 -0.500000 -0.500000
vn -1.0000 -0.0000 -0.0000
vn -0.0000 -0.0000 1.0000
vn -0.0000 -1.0000 -0.0000
vn -0.0000 1.0000 -0.0000
vn 1.0000 -0.0000 -0.0000
vn -0.0000 0.7071 -0.7071
vt 0.023904 0.230329
vt 0.246421 0.007812
vt 0.246421 0.452846
vt 0.316873 0.322499
vt 0.002186 0.322499
vt 0.002186 0.007813
vt 0.316873 0.007813
vt 0.328591 0.060780
vt 0.328591 0.375466
vt 0.013905 0.375466
vt 0.013905 0.060780
vt 0.297982 0.445034
vt 0.000000 0.890067
vt 0.000000 0.445034
vt 0.222517 0.667550
vt 0.000000 0.000000
vt 0.314686 0.000000
vt 0.314686 0.445034
vt 0.000000 0.445034
s 0
usemtl Material
f 6/1/1 5/2/1 9/2/1 10/3/1 4/3/1
f 3/4/2 2/5/2 5/6/2 6/7/2
f 4/8/3 1/9/3 3/10/3 6/11/3
f 8/12/4 9/12/4 5/12/4 2/12/4
f 1/13/5 7/13/5 8/14/5 2/14/5 3/15/5
f 9/16/6 8/17/6 7/18/6 10/19/6
f 4/12/4 10/12/4 7/12/4 1/12/4
o Cube.001
v -0.491034 -0.011340 -0.075618
v -0.491034 0.492676 0.497952
v -0.482068 0.021823 -0.104133
v -0.482068 0.525839 0.469437
v 0.493276 -0.011340 -0.075618
v 0.493276 0.492676 0.497952
v 0.482068 0.021823 -0.104133
v 0.482068 0.525839 0.469437
v 0.250000 0.021823 -0.104133
v 0.008966 0.021823 -0.104133
v -0.250000 0.021823 -0.104133
v -0.250000 0.525839 0.469437
v 0.008966 0.525839 0.469437
v 0.250000 0.525839 0.469437
v -0.250000 -0.011340 -0.075618
v -0.000000 -0.011340 -0.075618
v 0.250000 -0.011340 -0.075618
v 0.250000 0.492676 0.497952
v -0.000000 0.492676 0.497952
v -0.250000 0.492676 0.497952
v -0.019628 0.021823 -0.104133
v -0.019628 0.525839 0.469437
v -0.010662 -0.011340 -0.075618
v -0.010662 0.492676 0.497952
v -0.010662 0.499087 0.492945
v -0.000000 0.499087 0.492945
v -0.000000 -0.004929 -0.080625
v -0.010662 -0.004929 -0.080625
vn -0.9796 0.1509 -0.1326
vn -0.0000 0.7512 -0.6601
vn 0.9687 0.1865 -0.1639
vn -0.0000 -0.7512 0.6601
vn -0.0000 -0.6520 -0.7582
vn -0.0000 0.6520 0.7582
vn 0.9697 0.1834 -0.1612
vn -0.0000 -0.6601 -0.7512
vn -0.0000 0.6601 0.7512
vn -0.9697 0.1834 -0.1612
vt 0.222517 0.926675
vt 0.222517 0.686395
vt 0.236562 0.686247
vt 0.236562 0.926527
vt 0.684651 0.025658
vt 0.684651 0.988594
vt 0.391985 0.988594
vt 0.391985 0.025658
vt 0.380626 0.740001
vt 0.380626 0.499721
vt 0.394833 0.499869
vt 0.394833 0.740149
vt 0.293248 0.150535
vt 0.052968 0.150535
vt 0.052968 0.074685
vt 0.293248 0.074685
vt 0.353099 0.576277
vt 0.353099 0.503248
vt 0.366863 0.499721
vt 0.366863 0.576277
vt 0.366863 0.575571
vt 0.366863 0.502543
vt 0.380626 0.499721
vt 0.380626 0.575571
vt 0.366863 0.805943
vt 0.366863 0.732914
vt 0.380626 0.732914
vt 0.380626 0.809470
vt 0.366863 0.657064
vt 0.380626 0.654243
vt 0.366863 0.648066
vt 0.380626 0.650888
vt 0.353099 0.806649
vt 0.353099 0.733620
vt 0.366863 0.733620
vt 0.366863 0.809470
vt 0.353099 0.661125
vt 0.353099 0.652127
vt 0.366863 0.654948
vt 0.366863 0.658303
vt 0.293248 0.384434
vt 0.052968 0.384434
vt 0.052968 0.307879
vt 0.293248 0.307879
vt 0.052968 0.229207
vt 0.293248 0.229207
vt 0.293248 0.225852
vt 0.052968 0.225852
vt 0.971202 0.010004
vt 0.971202 0.972940
vt 0.678535 0.972940
vt 0.678535 0.010004
vt 0.408344 0.740001
vt 0.408345 0.499721
vt 0.419901 0.499721
vt 0.419901 0.740001
vt 0.988625 0.025658
vt 0.988625 0.988594
vt 0.388008 0.972940
vt 0.388008 0.010004
vt 0.294627 0.926527
vt 0.294627 0.686247
vt 0.297982 0.686247
vt 0.297982 0.926527
vt 0.297999 0.812647
vt 0.306997 0.812647
vt 0.304176 0.823854
vt 0.300820 0.823854
vt 0.297999 0.823854
vt 0.306997 0.823854
vt 0.304176 0.835060
vt 0.300820 0.835060
vt 0.419898 0.740001
vt 0.419898 0.980281
vt 0.408345 0.980281
vt 0.408345 0.740001
s 0
f 11/20/7 12/21/7 14/22/7 13/23/7
f 19/24/8 24/25/8 18/26/8 17/27/8
f 17/28/9 18/29/9 16/30/9 15/31/9
f 25/32/10 30/33/10 12/34/10 11/35/10
f 19/36/11 17/37/11 15/38/11 27/39/11
f 22/40/12 14/41/12 12/42/12 30/43/12
f 18/44/12 24/45/12 28/46/12 16/47/12
f 24/45/12 23/48/12 29/49/12 28/46/12
f 32/50/12 22/40/12 30/43/12 34/51/12
f 13/52/11 21/53/11 25/54/11 11/55/11
f 31/56/11 20/57/11 26/58/11 33/59/11
f 20/57/11 19/36/11 27/39/11 26/58/11
f 15/60/10 16/61/10 28/62/10 27/63/10
f 27/63/10 28/62/10 29/64/10 26/65/10
f 33/66/10 34/67/10 30/33/10 25/32/10
f 13/68/8 14/69/8 22/70/8 21/71/8
f 31/72/13 32/73/13 35/74/13 38/75/13
f 20/76/8 23/77/8 24/25/8 19/24/8
f 21/71/8 22/70/8 32/78/8 31/79/8
f 26/65/10 29/64/10 34/67/10 33/66/10
f 21/53/11 31/56/11 33/59/11 25/54/11
f 23/48/12 32/50/12 34/51/12 29/49/12
f 38/80/8 35/81/8 36/82/8 37/83/8
f 32/84/14 23/85/14 36/86/14 35/87/14
f 20/88/15 31/89/15 38/90/15 37/91/15
f 23/92/16 20/93/16 37/94/16 36/95/16
o Cube.002
v -0.500000 -0.503851 -0.558998
v -0.500000 0.004648 0.014571
v -0.500000 -0.470688 -0.587513
v -0.500000 0.037811 -0.013944
v 0.500000 -0.503851 -0.558998
v 0.500000 0.004648 0.014571
v 0.500000 -0.470688 -0.587513
v 0.500000 0.037811 -0.013944
v 0.260188 -0.470688 -0.587513
v 0.001223 -0.470688 -0.587513
v -0.237570 -0.470688 -0.587513
v -0.237570 0.037811 -0.013944
v 0.001223 0.037811 -0.013944
v 0.260188 0.037811 -0.013944
v -0.248777 -0.503851 -0.558998
v 0.001223 -0.503851 -0.558998
v 0.251223 -0.503851 -0.558998
v 0.251223 0.004648 0.014571
v 0.001223 0.004648 0.014571
v -0.248777 0.004648 0.014571
v 0.230213 -0.470688 -0.587513
v 0.230213 0.037811 -0.013944
v 0.241420 -0.503851 -0.558998
v 0.241420 0.004648 0.014571
v -0.267599 -0.470688 -0.587513
v -0.258633 0.004648 0.014571
v -0.267599 0.037811 -0.013944
v -0.258633 -0.503851 -0.558998
v -0.258633 0.006346 0.013952
v -0.248777 0.006346 0.013952
v 0.241420 0.006346 0.013952
v 0.251223 0.006346 0.013952
v -0.248777 -0.502154 -0.559618
v 0.251223 -0.502154 -0.559618
v 0.241420 -0.502154 -0.559618
v -0.258633 -0.502154 -0.559618
vn -1.0000 -0.0000 -0.0000
vn -0.0000 0.7483 -0.6634
vn 1.0000 -0.0000 -0.0000
vn -0.0000 -0.7483 0.6634
vn -0.0000 -0.6520 -0.7582
vn -0.0000 0.6520 0.7582
vn -0.0000 -0.6634 -0.7483
vn -0.0000 0.6634 0.7483
vn 0.9780 0.1560 -0.1383
vn -0.9780 0.1560 -0.1383
vn -0.9663 0.1927 -0.1708
vn 0.9663 0.1927 -0.1708
vt 0.263805 0.927669
vt 0.263805 0.686456
vt 0.277397 0.686247
vt 0.277397 0.927461
vt 0.677963 0.015024
vt 0.677963 0.981701
vt 0.375531 0.981701
vt 0.375531 0.015024
vt 0.277397 0.927461
vt 0.277397 0.686247
vt 0.290990 0.686456
vt 0.290990 0.927669
vt 0.276836 0.165520
vt 0.035623 0.165520
vt 0.035623 0.089565
vt 0.276836 0.089565
vt 0.297982 0.520499
vt 0.297982 0.445034
vt 0.311746 0.445034
vt 0.311746 0.523321
vt 0.339336 0.572855
vt 0.339336 0.499721
vt 0.353099 0.499721
vt 0.353099 0.575676
vt 0.339336 0.814408
vt 0.339336 0.738942
vt 0.353099 0.736121
vt 0.353099 0.814408
vt 0.339336 0.729509
vt 0.339336 0.657449
vt 0.353099 0.657449
vt 0.353099 0.733036
vt 0.339336 0.582304
vt 0.353099 0.578777
vt 0.297982 0.686587
vt 0.297982 0.677137
vt 0.311746 0.680664
vt 0.311746 0.683765
vt 0.297982 0.601992
vt 0.311746 0.601992
vt 0.297982 0.529932
vt 0.311746 0.526405
vt 0.276836 0.404251
vt 0.035623 0.404251
vt 0.035623 0.325964
vt 0.276836 0.325964
vt 0.276836 0.322880
vt 0.035623 0.322880
vt 0.035623 0.247293
vt 0.276836 0.247293
vt 0.035623 0.168621
vt 0.276836 0.168621
vt 0.297999 0.786184
vt 0.307432 0.786184
vt 0.304610 0.799416
vt 0.301526 0.799416
vt 0.989184 0.013907
vt 0.989184 0.980584
vt 0.688037 0.980584
vt 0.688037 0.013907
vt 0.297999 0.799416
vt 0.307432 0.799416
vt 0.303905 0.812647
vt 0.300820 0.812647
vt 0.399252 0.980584
vt 0.399252 0.013907
vt 0.973723 0.027692
vt 0.973723 0.994369
vt 0.680636 0.994369
vt 0.680636 0.027692
vt 0.297982 0.759720
vt 0.311746 0.759720
vt 0.291526 0.927461
vt 0.291526 0.686247
vt 0.294627 0.686247
vt 0.294627 0.927461
vt 0.419898 0.981215
vt 0.419898 0.740001
vt 0.422983 0.740001
vt 0.422983 0.981215
vt 0.394833 0.740935
vt 0.394833 0.499721
vt 0.408345 0.499721
vt 0.408344 0.740935
vt 0.297982 0.759720
vt 0.307432 0.759720
vt 0.303905 0.772952
vt 0.300804 0.772952
vt 0.408344 0.740935
vt 0.408344 0.982148
vt 0.394833 0.982148
vt 0.394833 0.740935
vt 0.297982 0.772952
vt 0.307432 0.772952
vt 0.304610 0.786184
vt 0.301509 0.786184
vt 0.263805 0.686247
vt 0.263805 0.927461
vt 0.250184 0.927461
vt 0.250184 0.686247
vt 0.236562 0.927461
vt 0.236562 0.686247
vt 0.250184 0.686247
s 0
f 39/96/17 40/97/17 42/98/17 41/99/17
f 47/100/18 52/101/18 46/102/18 45/103/18
f 45/104/19 46/105/19 44/106/19 43/107/19
f 66/108/20 64/109/20 40/110/20 39/111/20
f 47/112/21 45/113/21 43/114/21 55/115/21
f 65/116/22 42/117/22 40/118/22 64/119/22
f 46/120/22 52/121/22 56/122/22 44/123/22
f 60/124/22 51/125/22 57/126/22 62/127/22
f 51/125/22 50/128/22 58/129/22 57/126/22
f 63/130/21 49/131/21 53/132/21 66/133/21
f 49/131/21 48/134/21 54/135/21 53/132/21
f 59/136/21 47/112/21 55/115/21 61/137/21
f 43/138/20 44/139/20 56/140/20 55/141/20
f 61/142/20 62/143/20 57/144/20 54/145/20
f 54/145/20 57/144/20 58/146/20 53/147/20
f 60/148/23 52/149/23 70/150/23 69/151/23
f 49/152/18 50/153/18 51/154/18 48/155/18
f 47/156/24 59/157/24 73/158/24 72/159/24
f 48/155/18 51/154/18 60/160/18 59/161/18
f 55/141/20 56/140/20 62/143/20 61/142/20
f 48/134/21 59/136/21 61/137/21 54/135/21
f 52/121/22 60/124/22 62/127/22 56/122/22
f 41/162/18 42/163/18 65/164/18 63/165/18
f 41/166/21 63/130/21 66/133/21 39/167/21
f 50/128/22 65/116/22 64/119/22 58/129/22
f 53/147/20 58/146/20 64/109/20 66/108/20
f 74/168/18 67/169/18 68/170/18 71/171/18
f 73/172/18 69/173/18 70/174/18 72/175/18
f 63/176/25 65/177/25 67/178/25 74/179/25
f 65/180/23 50/181/23 68/182/23 67/183/23
f 52/184/26 47/185/26 72/186/26 70/187/26
f 49/188/24 63/189/24 74/190/24 71/191/24
f 50/192/27 49/193/27 71/194/27 68/195/27
f 59/196/28 60/197/28 69/198/28 73/194/28
