# Blender 4.3.2
# www.blender.org
mtllib myroofs_long_peak.mtl
o Cube
v -0.500000 -0.500000 1.501575
v -0.500000 -0.500000 -0.500000
v -0.500000 -0.000589 0.500845
v 0.500000 -0.500000 1.501575
v 0.500000 -0.500000 -0.500000
v 0.500000 -0.000589 0.500845
v -0.500000 -0.500000 1.501575
v -0.500000 -0.000589 0.500845
v 0.500000 -0.000589 0.500845
v 0.500000 -0.500000 1.501575
vn -0.0000 1.0000 -0.0000
vn -0.0000 0.8948 -0.4465
vn -1.0000 -0.0000 -0.0000
vn -0.0000 -1.0000 -0.0000
vn 1.0000 -0.0000 -0.0000
vn -0.0000 0.8948 0.4465
vt 0.988281 -0.009593
vt 0.988281 -1.020966
vt -0.023092 1.001780
vt -0.023092 -0.009593
vt 0.988281 1.001780
vt -1.034465 1.001781
vt 0.988281 2.013154
vt 1.999655 1.001780
vt 1.999655 2.013154
vt 1.999655 -0.009593
vt 3.011028 -0.009593
vt 3.011028 1.001780
s 0
f 6/1/1 3/2/1 8/2/1 9/1/1
f 2/3/2 3/4/2 6/1/2 5/5/2
f 1/6/3 7/6/3 8/4/3 3/4/3 2/3/3
f 2/7/4 5/5/4 4/8/4 1/9/4
f 5/5/5 6/1/5 9/1/5 10/8/5 4/8/5
f 9/10/6 8/11/6 7/12/6 10/8/6
f 4/8/1 10/8/1 7/12/1 1/12/1
